<svg xmlns="http://www.w3.org/2000/svg" viewBox="0 0 320 380" width="320" height="380">
  
<defs>
  <linearGradient id="g2" x1="0" y1="0" x2="1" y2="1">
    <stop offset="0" stop-color="#C96F55"/>
    <stop offset="1" stop-color="#A44B38"/>
  </linearGradient>
  <filter id="g2-n" x="0" y="0">
    <feTurbulence baseFrequency="0.9" numOctaves="2" result="t"/>
    <feColorMatrix in="t" type="matrix" values="0 0 0 0 0  0 0 0 0 0  0 0 0 0 0  0 0 0 0.18 0"/>
    <feComposite in2="SourceGraphic" operator="in"/>
  </filter>
</defs>
  <path fill="url(#g2)" d="M55 90 Q100 50 130 55 Q140 25 160 25 Q180 25 190 55 Q220 50 265 90 L295 140 L250 160 L245 350 Q160 365 75 350 L70 160 L25 140 Z"/>
  <path d="M55 90 Q100 50 130 55 Q140 25 160 25 Q180 25 190 55 Q220 50 265 90 L295 140 L250 160 L245 350 Q160 365 75 350 L70 160 L25 140 Z" fill="url(#g2)" filter="url(#g2-n)"/>
  <path d="M130 55 Q160 90 190 55" stroke="#7A2E1E" stroke-width="2" fill="none" opacity="0.6"/>
  <rect x="148" y="210" width="24" height="90" fill="#7A2E1E" opacity="0.15" rx="4"/>
</svg>