<svg xmlns="http://www.w3.org/2000/svg" viewBox="0 0 300 380" width="300" height="380">
  
<defs>
  <linearGradient id="g3" x1="0" y1="0" x2="1" y2="1">
    <stop offset="0" stop-color="#FBF3DF"/>
    <stop offset="1" stop-color="#ECDDB8"/>
  </linearGradient>
  <filter id="g3-n" x="0" y="0">
    <feTurbulence baseFrequency="0.9" numOctaves="2" result="t"/>
    <feColorMatrix in="t" type="matrix" values="0 0 0 0 0  0 0 0 0 0  0 0 0 0 0  0 0 0 0.18 0"/>
    <feComposite in2="SourceGraphic" operator="in"/>
  </filter>
</defs>
  <path fill="url(#g3)" d="M65 70 L110 45 L150 70 L190 45 L235 70 L270 125 L235 145 L230 350 Q150 365 70 350 L65 145 L30 125 Z"/>
  <path d="M65 70 L110 45 L150 70 L190 45 L235 70 L270 125 L235 145 L230 350 Q150 365 70 350 L65 145 L30 125 Z" fill="url(#g3)" filter="url(#g3-n)"/>
  <line x1="150" y1="75" x2="150" y2="345" stroke="#B08A5A" stroke-width="1" opacity="0.4"/>
  <circle cx="150" cy="140" r="2.5" fill="#B08A5A" opacity="0.6"/>
  <circle cx="150" cy="190" r="2.5" fill="#B08A5A" opacity="0.6"/>
  <circle cx="150" cy="240" r="2.5" fill="#B08A5A" opacity="0.6"/>
  <circle cx="150" cy="290" r="2.5" fill="#B08A5A" opacity="0.6"/>
</svg>