<svg xmlns="http://www.w3.org/2000/svg" viewBox="0 0 320 380" width="320" height="380">
  
<defs>
  <linearGradient id="g6" x1="0" y1="0" x2="1" y2="1">
    <stop offset="0" stop-color="#B55A3A"/>
    <stop offset="1" stop-color="#8A3E22"/>
  </linearGradient>
  <filter id="g6-n" x="0" y="0">
    <feTurbulence baseFrequency="0.9" numOctaves="2" result="t"/>
    <feColorMatrix in="t" type="matrix" values="0 0 0 0 0  0 0 0 0 0  0 0 0 0 0  0 0 0 0.18 0"/>
    <feComposite in2="SourceGraphic" operator="in"/>
  </filter>
</defs>
  <path fill="url(#g6)" d="M55 90 Q110 55 150 55 L170 55 Q210 55 265 90 L295 140 L250 160 L245 350 Q160 365 75 350 L70 160 L25 140 Z"/>
  <path d="M55 90 Q110 55 150 55 L170 55 Q210 55 265 90 L295 140 L250 160 L245 350 Q160 365 75 350 L70 160 L25 140 Z" fill="url(#g6)" filter="url(#g6-n)"/>
  <line x1="160" y1="55" x2="160" y2="355" stroke="#3B1A0E" stroke-width="2" opacity="0.7"/>
  <rect x="156" y="55" width="8" height="300" fill="url(#g6)" opacity="0.2"/>
</svg>